<svg width="32" height="32" viewBox="0 0 32 32" fill="none" xmlns="http://www.w3.org/2000/svg">
<path fill-rule="evenodd" clip-rule="evenodd" d="M16 0C11.6544 0 11.1104 0.0191999 9.4032 0.0959999C7.7008 0.1744 6.5376 0.4448 5.52 0.84C4.45198 1.24135 3.4844 1.87093 2.6848 2.6848C1.87097 3.48444 1.2414 4.452 0.84 5.52C0.4448 6.5376 0.1744 7.7008 0.0959999 9.4032C0.0175999 11.1104 0 11.6544 0 16C0 20.3456 0.0175999 20.8896 0.0959999 22.5968C0.1744 24.2992 0.4448 25.4624 0.84 26.48C1.24144 27.548 1.87101 28.5155 2.6848 29.3152C3.48447 30.129 4.45203 30.7586 5.52 31.16C6.5376 31.5552 7.7008 31.8256 9.4032 31.904C11.1104 31.9808 11.6544 32 16 32C20.3456 32 20.8896 31.9808 22.5968 31.904C24.2992 31.8256 25.4624 31.5552 26.48 31.16C27.548 30.7586 28.5156 30.129 29.3152 29.3152C30.129 28.5156 30.7586 27.548 31.16 26.48C31.5552 25.4624 31.8256 24.2992 31.904 22.5968C31.9808 20.8896 32 20.3456 32 16C32 11.6544 31.9808 11.1104 31.904 9.4032C31.8256 7.7008 31.5552 6.5376 31.16 5.52C30.7586 4.452 30.129 3.48444 29.3152 2.6848C28.5156 1.87093 27.548 1.24135 26.48 0.84C25.4624 0.4448 24.2992 0.1744 22.5968 0.0959999C20.8896 0.0191999 20.3456 0 16 0ZM16 2.8832C20.272 2.8832 20.7776 2.8992 22.464 2.976C24.0256 3.048 24.872 3.3072 25.4368 3.5264C26.1824 3.8176 26.7168 4.1648 27.2768 4.7232C27.8368 5.2832 28.1824 5.8176 28.4736 6.5632C28.6912 7.128 28.9536 7.9744 29.024 9.5344C29.1008 11.2224 29.1168 11.7264 29.1168 16C29.1168 20.272 29.1008 20.7776 29.024 22.464C28.952 24.0256 28.6912 24.872 28.4736 25.4368C28.2171 26.1318 27.8081 26.7605 27.2768 27.2768C26.7168 27.8368 26.1824 28.1824 25.4368 28.4736C24.872 28.6912 24.0256 28.9536 22.4656 29.024C20.7792 29.1008 20.2736 29.1168 16 29.1168C11.728 29.1168 11.2208 29.1008 9.536 29.024C7.9744 28.952 7.128 28.6912 6.5632 28.4736C5.86814 28.2172 5.23939 27.8082 4.7232 27.2768C4.19177 26.7606 3.78282 26.1319 3.5264 25.4368C3.3072 24.872 3.0464 24.0256 2.976 22.4656C2.8992 20.7776 2.8832 20.2736 2.8832 16C2.8832 11.728 2.8992 11.2224 2.976 9.536C3.048 7.9744 3.3072 7.128 3.5264 6.5632C3.8176 5.8176 4.1648 5.2832 4.7232 4.7232C5.2832 4.1632 5.8176 3.8176 6.5632 3.5264C7.128 3.3072 7.9744 3.0464 9.5344 2.976C11.2224 2.8992 11.7264 2.8832 16 2.8832ZM16 21.3328C14.5857 21.3328 13.2292 20.771 12.2291 19.7709C11.229 18.7708 10.6672 17.4143 10.6672 16C10.6672 14.5857 11.229 13.2292 12.2291 12.2291C13.2292 11.229 14.5857 10.6672 16 10.6672C17.4143 10.6672 18.7708 11.229 19.7709 12.2291C20.771 13.2292 21.3328 14.5857 21.3328 16C21.3328 17.4143 20.771 18.7708 19.7709 19.7709C18.7708 20.771 17.4143 21.3328 16 21.3328ZM16 7.784C14.9211 7.784 13.8527 7.99651 12.8559 8.40941C11.8591 8.8223 10.9533 9.42749 10.1904 10.1904C9.42748 10.9533 8.8223 11.8591 8.40941 12.8559C7.99651 13.8527 7.784 14.9211 7.784 16C7.784 17.0789 7.99651 18.1473 8.40941 19.1441C8.8223 20.1409 9.42748 21.0467 10.1904 21.8096C10.9533 22.5725 11.8591 23.1777 12.8559 23.5906C13.8527 24.0035 14.9211 24.216 16 24.216C18.179 24.216 20.2688 23.3504 21.8096 21.8096C23.3504 20.2688 24.216 18.179 24.216 16C24.216 13.821 23.3504 11.7312 21.8096 10.1904C20.2688 8.64961 18.179 7.784 16 7.784ZM26.4608 7.4592C26.4608 7.71134 26.4111 7.96101 26.3146 8.19395C26.2182 8.4269 26.0767 8.63856 25.8984 8.81684C25.7202 8.99513 25.5085 9.13656 25.2756 9.23305C25.0426 9.32954 24.7929 9.3792 24.5408 9.3792C24.2887 9.3792 24.039 9.32954 23.806 9.23305C23.5731 9.13656 23.3614 8.99513 23.1832 8.81684C23.0049 8.63856 22.8634 8.4269 22.767 8.19395C22.6705 7.96101 22.6208 7.71134 22.6208 7.4592C22.6208 6.94998 22.8231 6.46162 23.1832 6.10155C23.5432 5.74149 24.0316 5.5392 24.5408 5.5392C25.05 5.5392 25.5384 5.74149 25.8984 6.10155C26.2585 6.46162 26.4608 6.94998 26.4608 7.4592Z" fill="#170E08"/>
</svg>
