<svg width="32" height="32" viewBox="0 0 32 32" fill="none" xmlns="http://www.w3.org/2000/svg">
<path fill-rule="evenodd" clip-rule="evenodd" d="M16 0C7.1632 0 0 7.1632 0 16C0 22.7776 4.2176 28.5664 10.168 30.8976C10.0288 29.632 9.9024 27.6912 10.224 26.3088C10.5152 25.0608 12.1008 18.3568 12.1008 18.3568C12.1008 18.3568 11.6224 17.3968 11.6224 15.9808C11.6224 13.7552 12.912 12.096 14.5184 12.096C15.8816 12.096 16.5408 13.12 16.5408 14.3488C16.5408 15.7216 15.6672 17.7728 15.216 19.6768C14.8384 21.2688 16.016 22.5664 17.5856 22.5664C20.4288 22.5664 22.6144 19.568 22.6144 15.24C22.6144 11.4096 19.8624 8.7312 15.9312 8.7312C11.3808 8.7312 8.7072 12.1456 8.7072 15.6752C8.7072 17.0496 9.2368 18.5232 9.8976 19.3248C9.9543 19.3852 9.99441 19.4592 10.014 19.5397C10.0337 19.6201 10.0321 19.7043 10.0096 19.784C9.888 20.2896 9.6176 21.376 9.5648 21.6C9.4944 21.8912 9.3328 21.9536 9.0304 21.8128C7.0304 20.8832 5.7824 17.9616 5.7824 15.6144C5.7824 10.5664 9.448 5.9328 16.3536 5.9328C21.904 5.9328 26.2176 9.888 26.2176 15.1728C26.2176 20.688 22.7408 25.1248 17.9136 25.1248C16.2944 25.1248 14.7696 24.2832 14.248 23.2864C14.248 23.2864 13.4448 26.3424 13.2512 27.0912C12.8896 28.48 11.9152 30.224 11.2624 31.2864C12.76 31.7488 14.3504 31.9984 15.9984 31.9984C24.8384 32 32 24.8352 32 16C32 7.1648 24.8368 0 16 0Z" fill="#170E08"/>
</svg>
